<?xml version="1.0" standalone="no"?>
<!DOCTYPE svg PUBLIC "-//W3C//DTD SVG 20010904//EN"
 "http://www.w3.org/TR/2001/REC-SVG-20010904/DTD/svg10.dtd">
<svg version="1.0" xmlns="http://www.w3.org/2000/svg"
 width="2048.000000pt" height="2048.000000pt" viewBox="0 0 2048.000000 2048.000000"
 preserveAspectRatio="xMidYMid meet">

<g transform="translate(0.000000,2048.000000) scale(0.100000,-0.100000)"
fill="#000000" stroke="none">
<path d="M9890 19279 c-303 -24 -390 -37 -595 -84 -38 -9 -106 -22 -150 -30
-44 -7 -106 -25 -139 -39 -32 -14 -65 -26 -72 -26 -8 0 -45 -14 -82 -31 -37
-16 -87 -34 -111 -40 -52 -12 -158 -79 -250 -159 -204 -177 -386 -345 -651
-604 -96 -94 -199 -189 -228 -211 -148 -112 -315 -266 -702 -651 -234 -232
-490 -477 -569 -545 -206 -175 -311 -268 -521 -465 -194 -182 -516 -511 -553
-566 -12 -17 -53 -53 -90 -78 -37 -25 -107 -81 -155 -124 -108 -97 -653 -656
-810 -831 -104 -115 -199 -212 -407 -414 -33 -32 -206 -194 -385 -361 -179
-166 -355 -332 -392 -368 -172 -170 -256 -251 -571 -548 -485 -457 -548 -516
-887 -823 -167 -152 -330 -301 -362 -332 -82 -81 -88 -126 -24 -193 44 -47 69
-46 97 2 16 26 57 60 143 117 66 44 163 111 216 148 52 38 106 76 119 85 12 9
74 55 136 102 62 47 123 92 135 100 42 29 166 124 298 229 73 58 229 183 348
276 119 94 318 252 442 353 125 100 238 191 252 202 14 10 63 50 110 88 104
83 356 284 390 310 14 11 106 83 205 160 99 78 191 150 205 161 26 20 95 73
265 204 153 118 165 127 276 210 332 248 539 401 862 635 153 111 227 164 457
326 74 52 184 130 243 173 60 43 145 103 190 133 45 31 144 98 220 150 76 52
152 104 170 115 18 11 69 45 112 75 44 30 88 60 97 65 18 11 97 63 245 163 91
60 113 71 113 54 0 -13 -21 -75 -90 -272 -34 -96 -77 -220 -95 -275 -18 -55
-47 -138 -65 -185 -17 -47 -39 -112 -49 -146 -10 -34 -24 -70 -29 -81 -6 -11
-20 -51 -31 -89 -19 -68 -64 -200 -80 -239 -9 -20 -102 -298 -146 -435 -51
-156 -137 -416 -150 -450 -7 -19 -46 -136 -86 -260 -39 -124 -98 -305 -130
-402 -33 -98 -59 -183 -59 -189 0 -6 -6 -25 -14 -42 -8 -18 -33 -93 -56 -167
-23 -74 -61 -193 -85 -265 -39 -119 -76 -237 -157 -495 -16 -52 -38 -120 -48
-150 -10 -30 -37 -116 -60 -190 -40 -128 -53 -172 -120 -385 -16 -49 -42 -133
-59 -185 -16 -52 -37 -117 -46 -145 -8 -27 -25 -81 -36 -120 -10 -38 -26 -88
-33 -110 -8 -22 -33 -101 -56 -175 -23 -74 -64 -200 -90 -280 -26 -80 -69
-212 -95 -295 -53 -168 -93 -290 -105 -320 -5 -11 -24 -69 -43 -130 -30 -95
-98 -308 -204 -638 l-28 -89 -130 -67 c-382 -197 -516 -267 -575 -301 -84 -47
-317 -170 -324 -170 -10 0 -6 39 4 45 6 4 10 12 9 18 -3 15 19 97 31 119 16
28 12 55 -10 61 -18 5 -20 14 -20 115 0 142 -1 145 -48 125 -19 -8 -62 -32
-95 -54 -32 -21 -61 -39 -65 -39 -4 0 -34 -18 -67 -40 -33 -22 -64 -40 -70
-40 -5 0 -39 -19 -75 -43 -36 -23 -78 -48 -95 -55 -16 -7 -47 -25 -67 -39 -36
-24 -38 -29 -38 -79 0 -29 5 -56 10 -59 6 -3 10 -44 10 -91 0 -66 3 -86 15
-90 23 -9 17 -54 -26 -170 -4 -13 -65 -54 -166 -111 -234 -133 -356 -203 -373
-213 -13 -8 -165 -94 -537 -302 -67 -37 -125 -68 -129 -68 -4 0 -15 -6 -23
-14 -15 -13 -130 -79 -266 -151 -57 -31 -126 -69 -260 -147 -33 -19 -89 -53
-123 -76 -35 -23 -65 -42 -68 -42 -6 0 -178 -115 -288 -192 -50 -35 -94 -65
-99 -67 -5 -2 -54 -34 -109 -72 -54 -38 -102 -69 -106 -69 -12 0 -112 -96
-112 -107 0 -6 8 -21 19 -34 l18 -23 63 27 c34 15 88 45 119 66 80 54 193 126
211 134 8 4 35 20 60 37 134 86 405 223 875 440 197 91 291 135 460 215 55 26
138 66 185 88 47 22 186 89 309 149 123 59 225 107 227 105 3 -3 -9 -51 -62
-247 -14 -52 -40 -156 -58 -230 -18 -74 -36 -142 -39 -150 -7 -18 -43 -213
-52 -287 -4 -29 -11 -55 -16 -59 -5 -3 -9 -14 -9 -25 0 -11 -9 -46 -20 -79
-11 -32 -17 -66 -14 -75 10 -25 52 -30 75 -9 22 20 19 56 -7 85 -14 16 -14 18
15 150 4 19 11 40 14 46 7 11 11 26 72 298 44 194 79 337 98 400 8 28 24 86
34 130 l18 80 105 51 c58 29 116 55 129 59 22 7 23 5 17 -21 -3 -16 -15 -67
-26 -114 -10 -47 -27 -121 -36 -165 -9 -44 -18 -86 -20 -92 -2 -7 -13 -13 -24
-13 -15 0 -26 -13 -40 -46 -26 -60 -25 -66 9 -103 36 -38 43 -38 81 -4 41 37
53 103 22 125 l-20 14 19 79 c11 44 34 134 50 200 17 66 31 127 33 135 6 38
24 54 94 86 41 19 78 34 83 34 13 0 10 -29 -7 -75 -8 -22 -27 -98 -44 -170
-16 -71 -41 -179 -55 -240 -15 -60 -35 -159 -47 -220 -11 -60 -28 -134 -38
-163 -14 -43 -15 -55 -4 -59 11 -4 181 74 208 96 6 5 67 38 136 74 69 35 161
83 204 106 45 24 83 38 88 33 5 -5 -2 -37 -16 -73 -76 -199 -143 -412 -177
-569 -6 -25 -28 -103 -50 -175 -22 -71 -50 -161 -61 -200 -11 -38 -29 -97 -40
-130 -24 -72 -72 -265 -98 -390 -10 -49 -28 -120 -40 -156 -11 -36 -31 -110
-44 -165 -23 -96 -58 -214 -91 -302 -8 -24 -18 -71 -22 -105 -3 -34 -14 -82
-23 -107 -10 -25 -25 -92 -35 -150 -9 -58 -24 -121 -32 -140 -12 -30 -18 -70
-22 -151 -1 -10 -13 -19 -31 -23 -78 -15 -108 -121 -54 -185 37 -45 82 -43
123 4 41 48 43 109 5 155 l-26 31 17 62 c9 34 29 118 45 187 57 245 81 345 90
365 5 11 19 63 30 115 12 52 30 115 39 140 10 25 22 63 26 85 5 34 56 176 85
240 5 11 19 70 30 130 11 61 29 139 40 175 41 135 63 218 86 320 19 89 63 248
82 300 3 8 18 65 33 125 15 61 47 171 72 245 25 74 60 182 77 240 17 58 39
126 49 152 l19 47 -22 -9 c-33 -12 -177 -90 -217 -116 -38 -26 -199 -106 -199
-99 0 2 11 21 25 41 14 20 25 45 25 55 0 23 30 44 170 116 63 33 151 80 196
106 78 44 154 69 154 50 0 -5 -18 -52 -41 -104 -22 -52 -51 -132 -65 -178 -13
-46 -29 -90 -35 -98 -7 -7 -7 -13 -2 -13 6 0 27 37 47 83 21 45 43 93 50 107
8 14 21 50 31 80 10 30 24 64 31 75 19 30 30 105 14 105 -7 0 -38 -13 -69 -30
-31 -16 -81 -40 -111 -54 -30 -14 -93 -47 -140 -74 -47 -27 -116 -67 -155 -89
-65 -38 -71 -39 -77 -22 -9 24 -73 26 -106 3 -38 -26 -25 -117 19 -143 16 -9
29 -19 29 -23 0 -4 -33 -23 -72 -42 -40 -20 -90 -45 -110 -58 -21 -12 -40 -19
-43 -17 -3 3 3 30 12 60 10 30 18 59 19 64 1 6 3 12 4 15 1 3 15 70 31 150 27
137 57 274 112 504 23 99 24 100 68 128 24 15 47 28 51 28 6 0 208 93 241 111
9 5 61 29 115 53 53 24 142 65 197 91 340 160 352 164 340 123 -9 -33 -54
-183 -75 -253 -10 -33 -28 -98 -40 -145 -11 -47 -25 -94 -30 -105 -5 -11 -21
-63 -34 -115 -14 -52 -40 -144 -57 -205 -17 -60 -42 -149 -54 -196 -51 -194
-45 -185 -160 -234 -90 -38 -87 -37 -80 -13 6 22 6 22 -9 4 -29 -36 -21 -49
27 -41 23 4 47 11 52 15 15 12 94 34 101 28 3 -3 -4 -32 -14 -64 -11 -33 -29
-102 -42 -154 -12 -52 -25 -104 -30 -115 -5 -11 -20 -67 -34 -125 -14 -58 -39
-159 -56 -225 -17 -66 -47 -185 -66 -265 -19 -80 -49 -201 -65 -270 -17 -69
-39 -165 -50 -215 -10 -49 -24 -101 -29 -115 -10 -25 -62 -259 -104 -470 -13
-63 -31 -149 -40 -190 -14 -63 -58 -334 -71 -435 -2 -16 -10 -79 -19 -140 -13
-92 -58 -508 -72 -665 -2 -25 -13 -148 -24 -275 -19 -209 -113 -1422 -124
-1590 -7 -114 -14 -205 -20 -280 -6 -68 -11 -124 -22 -275 -3 -41 -8 -111 -10
-155 -3 -44 -11 -154 -19 -245 -21 -257 -20 -303 12 -359 31 -56 77 -88 100
-69 18 14 51 85 133 283 34 83 81 191 103 240 22 50 52 122 67 160 15 39 51
126 80 195 29 69 76 184 105 255 113 278 156 381 165 397 5 9 24 56 43 105 19
48 47 115 62 147 15 32 33 75 40 95 8 20 30 74 50 121 20 47 48 112 62 145 13
33 33 79 44 102 10 24 19 45 19 49 0 3 10 29 23 57 33 73 85 196 162 382 20
50 49 119 65 155 15 36 39 94 53 130 52 132 89 226 102 255 8 17 26 64 40 105
15 41 43 118 62 170 48 135 204 602 248 745 20 66 41 131 47 145 6 14 23 70
38 125 27 97 53 185 120 405 17 58 44 150 60 205 16 55 43 147 61 205 17 58
44 150 60 205 48 170 69 239 75 255 4 8 21 69 39 135 31 115 51 186 125 445
18 63 45 160 60 215 41 145 113 398 178 625 17 58 39 139 51 180 11 41 27 93
35 115 8 22 22 69 31 105 9 36 25 90 35 120 10 30 32 102 50 160 46 153 143
456 216 679 60 183 83 231 107 231 6 0 29 8 51 18 65 29 128 56 326 137 102
42 222 92 267 110 45 19 84 35 88 35 3 0 27 9 52 21 24 11 79 34 121 50 43 17
86 34 97 39 11 4 81 31 155 60 74 29 153 60 175 70 22 10 67 28 100 40 33 12
80 31 105 41 41 16 99 39 385 149 55 22 136 53 180 70 44 18 130 49 190 71 61
22 119 43 130 49 11 5 43 18 70 28 47 19 85 33 315 119 52 19 115 43 140 53
61 25 409 153 490 180 36 12 79 28 95 35 17 7 134 49 260 94 127 45 253 90
280 101 28 10 68 23 90 30 22 6 49 16 60 21 24 11 192 71 290 104 39 13 142
49 230 80 88 31 212 74 275 96 63 21 201 68 305 104 105 37 213 73 240 81 28
8 57 18 65 23 8 4 42 16 75 25 33 10 96 30 140 46 44 16 125 43 180 60 55 16
109 34 120 39 11 5 115 39 230 76 116 36 228 72 250 79 22 8 87 28 145 46 58
17 123 38 145 45 22 8 81 26 130 40 50 15 99 31 110 36 11 4 49 15 85 24 36 9
74 20 85 24 11 5 54 19 95 31 41 13 104 31 140 42 36 10 92 27 125 38 33 10
94 28 135 40 41 11 102 29 135 40 58 18 130 39 275 80 39 11 102 29 140 40 39
11 100 29 138 40 37 10 81 22 97 25 17 4 37 9 45 13 16 6 100 29 212 58 37 10
70 16 73 13 5 -6 -43 -246 -55 -274 -5 -11 -23 -87 -40 -170 -16 -82 -32 -157
-35 -165 -3 -8 -16 -64 -29 -125 -34 -152 -43 -186 -53 -195 -10 -10 -203
-120 -210 -120 -3 0 -69 -35 -147 -79 -77 -43 -175 -95 -216 -116 -41 -21
-104 -54 -140 -75 -36 -20 -127 -69 -202 -108 -75 -40 -159 -85 -187 -101 -28
-17 -77 -43 -108 -59 -32 -16 -100 -52 -151 -81 -52 -29 -146 -79 -210 -113
-65 -33 -122 -65 -129 -70 -7 -5 -142 -75 -300 -155 -158 -79 -333 -169 -388
-198 -55 -29 -161 -84 -235 -122 -74 -39 -176 -93 -226 -121 -51 -29 -94 -52
-97 -52 -3 0 -105 -57 -228 -126 -433 -244 -536 -305 -1009 -594 -288 -176
-689 -420 -750 -455 -112 -65 -228 -138 -387 -241 -46 -30 -85 -54 -88 -54 -3
0 -117 -74 -254 -164 -168 -112 -251 -173 -259 -191 -11 -24 -8 -36 24 -103
37 -76 95 -142 126 -142 55 0 258 106 698 366 63 37 131 77 152 88 44 25 186
109 248 146 25 15 95 55 155 90 61 35 126 73 145 84 19 12 46 28 60 36 14 8
106 61 205 118 99 57 198 114 220 127 22 12 112 64 200 115 88 51 178 103 200
115 47 26 186 109 235 140 19 12 60 37 90 54 106 62 387 234 540 331 41 26
127 81 191 121 64 41 152 96 195 124 44 27 122 76 174 109 52 32 118 73 145
91 28 18 109 69 180 115 147 93 126 80 418 269 120 77 221 141 224 141 3 0 41
25 85 55 44 30 81 55 83 55 4 0 264 169 445 289 63 42 119 78 125 81 50 24
202 136 208 153 12 36 128 99 127 70 0 -5 -5 -26 -11 -48 -6 -22 -26 -114 -45
-205 -19 -91 -48 -226 -64 -300 -16 -74 -45 -211 -65 -305 -20 -93 -49 -231
-65 -305 -15 -74 -40 -193 -54 -265 -14 -71 -30 -143 -36 -160 -5 -16 -23
-100 -39 -185 -29 -148 -68 -344 -132 -660 -16 -80 -45 -226 -65 -325 -19 -99
-37 -189 -39 -200 -4 -20 -39 -201 -101 -520 -19 -99 -48 -256 -65 -350 -16
-93 -33 -177 -36 -185 -4 -8 -21 -98 -40 -200 -38 -210 -81 -435 -88 -465 -2
-11 -20 -110 -40 -220 -20 -110 -52 -288 -71 -395 -20 -107 -50 -289 -68 -405
-18 -115 -36 -217 -39 -225 -14 -34 -39 -389 -33 -465 8 -103 35 -257 47 -270
5 -5 9 -17 9 -26 0 -21 73 -163 127 -249 23 -36 68 -114 99 -174 59 -112 119
-183 179 -212 17 -8 65 -43 108 -79 88 -73 106 -80 183 -71 182 21 424 251
717 679 26 38 47 70 47 73 0 9 84 124 87 120 3 -3 -37 -323 -53 -426 -10 -65
-89 -705 -129 -1050 -68 -572 -133 -1141 -140 -1210 -2 -25 -22 -223 -44 -440
-38 -369 -39 -395 -24 -413 16 -17 17 -17 24 0 3 10 12 52 18 93 7 41 15 82
18 90 8 18 52 249 94 490 17 96 33 182 36 190 4 8 21 101 40 205 18 105 35
201 37 215 3 14 19 99 36 190 17 91 47 251 65 355 19 105 51 278 70 385 83
455 97 535 131 725 49 280 172 1011 203 1205 15 93 25 125 50 165 17 27 31 53
31 57 0 5 22 48 49 96 192 345 810 1593 998 2017 20 44 42 92 49 107 23 44 18
67 -21 85 -31 15 -40 15 -73 3 -48 -17 -253 -213 -567 -540 -132 -137 -245
-250 -251 -250 -7 0 -4 40 8 118 9 64 36 239 58 387 23 149 57 371 75 495 18
124 34 227 36 230 1 3 3 16 5 30 2 14 15 108 28 210 32 234 32 236 1 256 -23
15 -31 15 -65 4 -77 -26 -93 -62 -154 -365 -18 -88 -36 -169 -39 -180 -4 -11
-21 -94 -38 -185 -17 -91 -46 -246 -65 -345 -44 -229 -96 -511 -135 -735 -16
-96 -34 -200 -40 -230 -9 -50 -17 -62 -97 -145 -108 -112 -280 -294 -347 -366
-146 -157 -366 -381 -371 -376 -3 3 10 126 30 274 33 254 58 426 140 973 19
129 56 375 80 545 53 361 84 562 227 1460 21 138 57 363 79 500 21 138 53 333
70 435 64 390 101 614 140 860 22 140 43 264 45 275 3 11 20 117 40 235 57
355 63 383 82 394 23 15 125 72 203 114 275 148 867 492 898 520 26 25 29 52
4 52 -20 0 -297 -139 -447 -225 -22 -13 -69 -38 -105 -57 -36 -19 -146 -80
-245 -135 -205 -114 -280 -153 -295 -153 -13 0 -13 45 0 68 5 9 21 105 35 212
15 107 29 202 33 210 3 8 6 22 7 30 1 8 5 33 9 55 4 22 10 52 12 66 4 19 13
28 32 32 27 6 120 29 267 67 44 11 118 29 165 39 47 11 123 29 170 40 96 23
235 55 360 82 47 10 117 25 155 34 39 9 115 25 170 35 55 11 150 29 210 40
185 36 275 51 395 65 63 8 133 20 155 26 224 61 308 107 429 232 79 82 132
159 183 267 19 41 40 84 45 94 6 11 13 66 16 123 7 136 -12 198 -79 265 -26
26 -60 50 -76 53 -50 11 -87 28 -122 53 -61 45 -128 64 -246 69 -60 3 -141 0
-180 -6 -67 -9 -212 -32 -430 -66 -55 -9 -109 -20 -120 -25 -11 -5 -45 -13
-75 -19 -61 -11 -236 -51 -320 -74 -296 -79 -368 -99 -450 -122 -52 -15 -117
-33 -145 -41 -27 -7 -81 -22 -120 -33 -38 -11 -94 -26 -124 -35 -30 -8 -57
-13 -61 -11 -14 9 183 1204 210 1275 14 36 50 257 57 349 7 91 -2 113 -53 137
-31 15 -43 15 -87 5 -97 -22 -102 -27 -171 -156 -132 -246 -266 -599 -368
-965 -16 -58 -40 -145 -54 -195 -14 -49 -38 -139 -54 -200 -122 -476 -114
-452 -157 -460 -19 -3 -43 -10 -52 -15 -9 -5 -90 -32 -181 -61 -91 -28 -174
-55 -185 -60 -11 -5 -65 -23 -120 -40 -55 -17 -109 -34 -120 -39 -11 -5 -69
-25 -130 -44 -60 -19 -222 -74 -360 -122 -137 -47 -272 -93 -300 -101 -27 -9
-54 -19 -60 -23 -5 -4 -32 -13 -60 -20 -27 -7 -54 -16 -60 -20 -5 -4 -28 -13
-50 -19 -22 -7 -49 -16 -60 -21 -11 -4 -112 -41 -225 -80 -113 -39 -233 -83
-267 -96 -34 -13 -66 -24 -72 -24 -6 0 -19 -4 -29 -10 -9 -5 -48 -20 -87 -34
-154 -54 -288 -104 -640 -238 -93 -36 -215 -82 -270 -103 -55 -21 -119 -46
-142 -56 -24 -11 -49 -19 -56 -19 -7 0 -17 -4 -22 -9 -6 -5 -28 -14 -50 -21
-22 -7 -44 -16 -50 -20 -5 -4 -28 -13 -50 -20 -22 -7 -44 -16 -50 -20 -5 -4
-28 -13 -50 -20 -22 -7 -44 -16 -50 -20 -5 -4 -21 -11 -35 -15 -43 -13 -386
-147 -490 -192 -19 -9 -57 -24 -85 -33 -27 -10 -95 -37 -150 -60 -55 -23 -181
-75 -280 -115 -221 -89 -388 -158 -480 -197 -38 -16 -86 -35 -106 -43 -20 -7
-45 -18 -55 -23 -11 -5 -44 -20 -74 -33 -30 -12 -78 -33 -107 -46 -28 -13 -54
-23 -56 -23 -16 0 -1540 -660 -1733 -751 -23 -10 -44 -19 -48 -19 -3 0 -46
-18 -94 -41 -48 -22 -105 -49 -127 -59 -101 -47 -203 -94 -240 -110 -67 -29
-413 -189 -530 -245 -111 -52 -183 -86 -285 -132 -30 -14 -77 -36 -103 -50
-59 -30 -72 -22 -53 32 15 41 55 168 121 380 21 66 48 152 60 190 21 62 62
194 115 370 26 86 79 254 170 540 15 50 56 178 90 285 34 107 69 220 80 250
10 30 39 123 65 205 26 83 69 215 95 295 27 80 89 273 140 430 51 157 111 341
135 410 23 69 64 193 91 275 26 83 64 186 84 230 20 44 53 118 73 165 20 47
56 132 80 190 25 58 83 184 130 280 47 96 97 204 112 240 14 36 73 182 131
325 58 143 109 269 114 280 5 11 18 43 29 70 10 28 53 124 96 215 99 213 108
233 139 307 14 34 40 89 56 121 17 33 30 63 30 67 0 7 50 123 85 200 8 17 33
77 56 135 80 200 116 286 171 405 56 122 138 325 138 343 0 6 16 45 36 88 65
140 108 241 159 369 15 39 40 101 56 139 16 38 29 74 29 80 0 6 30 86 66 176
36 91 74 188 84 215 10 28 39 100 65 160 117 281 155 377 155 398 0 21 21 113
34 147 4 11 -11 21 -57 39 -54 22 -79 25 -192 26 -71 0 -166 4 -210 7 -44 3
-132 2 -195 -3z m-5800 -10280 c0 -23 5 -60 12 -82 11 -36 10 -41 -6 -51 -11
-6 -60 -38 -110 -70 -83 -54 -190 -118 -303 -183 l-43 -24 0 38 c0 21 -3 61
-6 88 l-6 50 148 89 c82 49 156 95 164 102 22 18 132 84 142 84 4 0 8 -19 8
-41z m65 -241 c-4 -18 -10 -37 -14 -43 -3 -5 -13 -30 -21 -54 -14 -40 -22 -48
-105 -93 -128 -71 -119 -71 -111 -4 13 101 23 113 132 172 119 64 128 66 119
22z m-262 -128 c-4 -30 -31 -141 -34 -144 -2 -1 -42 -25 -89 -53 -171 -101
-176 -102 -159 -7 14 80 19 94 31 94 10 0 82 41 178 102 47 29 76 32 73 8z
m-196 -1046 c9 -25 -17 -64 -45 -64 -22 0 -24 3 -18 32 9 46 50 66 63 32z
m-31 -2958 c8 -22 -14 -56 -36 -56 -11 0 -20 2 -20 4 0 2 -3 11 -6 19 -6 17
21 47 42 47 8 0 17 -6 20 -14z"/>
<path d="M5814 13855 c-31 -33 -35 -43 -29 -69 4 -17 7 -47 7 -66 0 -31 -89
-322 -157 -510 -12 -36 -42 -123 -65 -195 -23 -71 -47 -143 -54 -160 -7 -16
-19 -52 -26 -80 -7 -27 -16 -54 -20 -60 -4 -5 -18 -50 -30 -100 -12 -49 -28
-106 -35 -125 -7 -19 -32 -96 -56 -170 -23 -74 -55 -175 -70 -223 -16 -49 -29
-94 -29 -99 0 -6 -8 -16 -17 -23 -15 -11 -15 -15 0 -47 17 -37 31 -54 191
-243 l99 -116 -26 -63 c-14 -34 -28 -80 -32 -102 -11 -68 -26 -104 -42 -104
-8 0 -28 -13 -44 -29 -49 -49 -35 -141 21 -141 38 0 68 19 79 51 17 48 13 80
-11 106 l-21 23 21 23 c11 12 26 42 31 67 13 54 35 117 44 126 4 4 7 26 7 50
0 45 -4 51 -155 228 -39 45 -81 99 -94 119 -26 43 -26 49 25 217 19 63 46 153
60 200 33 111 40 132 111 345 34 99 80 241 103 315 22 74 50 160 60 190 40
118 148 475 152 505 2 14 14 21 43 26 28 5 47 16 67 40 48 57 31 111 -40 125
-28 6 -37 2 -68 -31z m60 -11 c23 -9 20 -41 -5 -54 -38 -21 -69 28 -31 49 21
13 17 12 36 5z m-434 -2621 c-21 -37 -38 -39 -52 -8 -11 24 -10 29 12 45 22
17 27 17 40 4 13 -13 13 -18 0 -41z"/>
<path d="M19866 13544 c-9 -8 -16 -30 -16 -49 0 -31 -4 -35 -47 -51 -65 -24
-160 -62 -208 -84 -131 -59 -168 -77 -245 -115 -47 -23 -98 -50 -115 -58 -95
-50 -246 -122 -350 -167 -66 -28 -130 -58 -142 -66 -12 -7 -30 -14 -40 -15
-23 0 -99 -93 -185 -226 -38 -58 -74 -103 -83 -103 -15 0 -117 -51 -305 -153
-85 -45 -85 -45 -190 -47 -58 -1 -124 2 -147 5 -26 4 -43 3 -43 -3 0 -8 115
-32 165 -34 43 -1 122 10 141 20 37 21 254 122 263 122 4 0 34 17 67 38 32 21
63 40 69 43 10 4 105 127 105 136 0 3 17 26 39 52 21 25 47 61 57 79 11 18 30
40 44 48 41 23 200 94 210 94 13 0 131 54 405 185 172 82 212 100 344 156 58
24 125 56 149 72 39 24 46 26 61 14 9 -8 24 -17 34 -20 24 -9 14 -23 -20 -32
-32 -7 -117 -43 -221 -91 -39 -19 -75 -34 -78 -34 -3 0 -48 -20 -101 -45 -52
-25 -97 -45 -99 -45 -9 0 -333 -162 -369 -184 -51 -32 -39 -33 23 -2 26 14 81
40 122 59 41 18 107 48 145 66 79 37 100 47 202 90 39 17 74 31 77 31 3 0 34
13 68 29 35 16 104 45 153 65 50 19 128 51 175 71 47 20 95 40 108 45 12 5 22
14 22 19 0 10 -41 0 -127 -32 l-43 -16 6 58 c5 46 3 60 -10 74 -22 21 -50 22
-70 1z m52 -39 c3 -28 -12 -47 -31 -39 -17 6 -23 44 -10 58 13 13 38 1 41 -19z"/>
<path d="M19563 13504 c-22 -9 -33 -21 -33 -34 0 -11 -6 -22 -12 -24 -62 -15
-176 -60 -288 -113 -191 -91 -410 -203 -442 -224 -14 -11 -29 -19 -32 -19 -3
0 -47 -24 -98 -53 -51 -30 -100 -56 -108 -59 -8 -3 -26 -34 -39 -69 -38 -101
-68 -147 -109 -168 -20 -10 -75 -41 -122 -69 -47 -28 -112 -65 -145 -83 -33
-17 -72 -40 -86 -50 -14 -10 -29 -16 -32 -12 -9 9 -154 23 -228 23 -36 -1 -78
4 -94 10 -35 13 -76 5 -69 -13 5 -13 -69 -60 -136 -87 -19 -8 -71 -33 -115
-56 -44 -22 -174 -90 -290 -149 -115 -59 -217 -114 -226 -121 -14 -13 -20 -12
-47 3 -30 17 -32 17 -59 -3 -15 -12 -29 -29 -31 -38 -5 -22 21 -61 54 -82 24
-16 26 -16 49 6 14 14 25 35 25 50 0 29 16 50 39 50 15 0 226 104 251 124 8 7
44 27 80 46 36 18 81 43 101 56 19 12 71 41 115 63 43 23 109 58 147 78 l67
35 173 -22 172 -23 202 101 c257 129 241 119 270 177 13 28 34 68 48 90 13 22
33 56 44 76 17 31 41 47 168 109 219 107 319 155 403 190 41 17 82 34 90 39 8
4 58 25 110 46 52 21 122 56 154 77 51 34 63 38 81 28 12 -7 33 -10 46 -8 21
3 24 8 24 47 0 57 -24 75 -72 55z"/>
<path d="M5771 13051 c-24 -24 -28 -73 -8 -89 10 -9 3 -43 -39 -174 -29 -90
-64 -206 -79 -258 -26 -95 -75 -256 -121 -403 -33 -107 -31 -125 16 -185 22
-27 40 -53 40 -57 0 -8 39 -61 92 -126 l37 -46 -53 -149 c-29 -82 -57 -165
-61 -184 -4 -19 -11 -39 -15 -45 -4 -5 -17 -41 -29 -80 -12 -38 -25 -79 -31
-90 -5 -11 -16 -42 -25 -69 -9 -27 -25 -72 -36 -100 -11 -28 -34 -85 -51 -126
-16 -41 -36 -88 -43 -105 -48 -103 -156 -419 -215 -625 -11 -41 -25 -84 -30
-95 -5 -11 -14 -38 -20 -60 -7 -22 -18 -53 -25 -70 -7 -16 -21 -55 -30 -85
-16 -50 -41 -111 -80 -195 -8 -16 -21 -47 -29 -67 -12 -32 -25 -42 -83 -69
-141 -64 -409 -203 -436 -226 -16 -12 -33 -23 -38 -23 -6 0 -9 -12 -7 -27 2
-23 7 -28 28 -25 l25 2 -3 -97 c-2 -53 -1 -112 3 -131 7 -40 18 -38 112 19 35
22 67 39 72 39 10 0 214 107 294 155 30 17 54 24 67 20 28 -9 67 33 75 81 4
22 10 50 15 64 15 44 31 161 25 181 -4 12 -1 21 9 25 9 3 16 15 16 25 0 17 -3
18 -21 8 -12 -6 -35 -15 -51 -20 -26 -7 -29 -6 -24 9 9 28 81 231 109 307 14
39 57 171 97 295 107 339 168 507 300 830 37 91 100 267 161 450 15 47 40 116
54 154 18 49 24 78 19 103 -6 33 -117 186 -191 264 l-35 37 37 108 c20 60 41
118 45 129 13 30 75 236 109 360 24 87 61 276 61 317 0 4 19 8 43 10 40 3 42
4 45 39 5 64 -58 109 -97 70z m-769 -3607 c-1 -16 -7 -40 -12 -54 -4 -14 -11
-41 -14 -61 -6 -34 -12 -39 -114 -91 -59 -30 -166 -86 -239 -124 -72 -38 -134
-66 -137 -64 -8 9 25 184 37 197 7 6 104 55 215 107 112 53 214 103 225 111
29 21 43 13 39 -21z"/>
<path d="M18928 12944 c-16 -8 -28 -17 -28 -19 0 -7 60 17 66 26 8 13 -7 10
-38 -7z"/>
<path d="M18732 12870 c-6 -16 -35 -71 -64 -122 -29 -51 -67 -121 -83 -155
-17 -35 -34 -63 -38 -63 -4 0 -65 -27 -135 -61 -70 -33 -140 -66 -157 -74
-116 -51 -155 -68 -190 -85 -34 -16 -47 -17 -85 -9 -25 6 -99 18 -165 26 -66
8 -127 19 -137 23 -15 9 -70 -1 -113 -20 -11 -4 -40 -16 -65 -25 -104 -39
-494 -251 -740 -403 -58 -36 -126 -76 -152 -91 l-48 -26 0 -55 c0 -30 -12
-116 -26 -190 -49 -257 -53 -285 -53 -340 -1 -64 -29 -257 -42 -282 -5 -9 -13
-70 -19 -135 -6 -65 -19 -183 -30 -263 -25 -184 -40 -328 -40 -377 0 -22 -4
-43 -9 -48 -5 -6 -17 -71 -26 -145 -31 -266 -36 -305 -42 -320 -4 -8 -8 -24
-9 -35 -1 -11 -14 -83 -28 -160 -14 -77 -26 -149 -25 -160 2 -68 51 149 70
309 7 56 15 106 20 111 4 6 15 73 24 150 10 77 26 203 36 280 22 159 39 281
69 510 11 88 25 174 30 190 11 38 37 243 51 400 6 66 14 125 18 130 12 16 30
108 50 247 10 70 25 138 33 150 9 13 49 42 89 64 41 23 112 63 159 91 176 103
488 262 612 313 31 13 80 41 108 62 l52 39 71 -14 c40 -8 125 -27 190 -42
l117 -27 18 20 c15 19 153 82 177 82 5 0 22 6 36 14 15 8 65 28 110 45 46 18
98 39 116 47 17 8 36 14 42 14 6 0 26 14 46 31 25 22 35 39 35 60 0 17 5 35
11 42 12 13 128 188 145 218 6 10 19 28 29 39 14 16 15 22 5 35 -19 23 -37 18
-48 -15z"/>
<path d="M16670 10677 c0 -13 -4 -27 -9 -32 -5 -6 -21 -77 -35 -160 -15 -82
-31 -161 -36 -175 -9 -23 -58 -301 -64 -360 -1 -14 -5 -32 -8 -40 -3 -8 -18
-98 -33 -199 -15 -102 -31 -194 -36 -205 -10 -24 -39 -222 -39 -264 0 -40 -41
-120 -72 -140 -30 -20 -87 -73 -183 -171 l-70 -71 -8 -73 c-5 -39 -9 -92 -11
-117 -1 -25 -5 -52 -8 -60 -17 -43 -51 -434 -42 -480 4 -19 13 -30 23 -30 9 0
61 -44 115 -99 l98 -99 -7 -42 c-5 -27 -4 -40 3 -36 5 3 12 24 16 47 l7 42
-111 108 c-61 60 -115 109 -120 109 -21 0 -1 256 36 450 15 80 19 109 29 205
2 22 4 42 4 45 1 8 165 175 241 245 84 77 85 82 120 365 16 129 16 133 49 315
18 94 43 238 56 320 14 83 29 159 34 170 23 49 83 455 67 455 -3 0 -6 -10 -6
-23z"/>
<path d="M16497 10473 c-4 -3 -7 -11 -7 -17 0 -6 5 -5 12 2 6 6 9 14 7 17 -3
3 -9 2 -12 -2z"/>
<path d="M16476 10369 c-9 -89 -8 -125 4 -113 13 13 25 174 13 174 -6 0 -13
-28 -17 -61z"/>
<path d="M16460 10196 c0 -7 -2 -35 -5 -62 -4 -47 -4 -47 6 -14 19 63 22 90
10 90 -6 0 -11 -6 -11 -14z"/>
<path d="M16437 10066 c-12 -32 -19 -134 -9 -140 6 -3 12 24 17 70 7 73 4 101
-8 70z"/>
<path d="M16417 9903 c-11 -10 -8 -53 3 -53 6 0 10 14 10 30 0 31 -2 35 -13
23z"/>
<path d="M11500 9866 c0 -40 24 -65 48 -49 39 24 21 83 -24 83 -21 0 -24 -5
-24 -34z"/>
<path d="M11431 9818 c-32 -9 -284 -156 -381 -223 -25 -17 -56 -36 -70 -43
-14 -7 -45 -26 -70 -42 -25 -16 -52 -33 -60 -37 -25 -11 -182 -103 -230 -134
-25 -16 -59 -36 -77 -44 -17 -8 -34 -19 -38 -25 -4 -6 -16 -5 -34 5 -25 12
-31 12 -47 -1 -40 -30 -142 -92 -214 -128 -124 -63 -309 -176 -512 -313 -74
-50 -74 -50 -22 -123 17 -25 35 -56 39 -70 11 -36 66 -110 82 -110 7 0 15 11
19 25 5 19 39 43 148 106 77 44 177 103 221 131 44 28 139 82 210 121 72 39
134 77 138 84 4 7 13 13 20 13 7 0 18 9 24 19 10 17 54 48 138 98 11 7 54 31
95 54 41 23 86 50 100 59 14 10 54 33 90 53 36 19 97 53 135 75 39 22 116 65
171 95 56 30 123 70 150 89 27 19 69 47 94 62 69 42 11 21 -80 -30 -44 -24
-83 -44 -87 -44 -6 0 -159 -86 -358 -203 -229 -134 -403 -243 -416 -261 -10
-13 -22 -2 -44 39 l-19 37 24 20 c14 10 44 28 67 39 23 10 43 23 45 27 2 4 46
29 98 56 88 46 396 215 430 236 17 11 92 53 165 95 28 15 57 33 65 40 37 31
93 56 103 46 18 -18 43 -12 57 13 29 55 -21 76 -68 29 -15 -16 -65 -46 -112
-69 -47 -22 -130 -67 -185 -99 -55 -32 -131 -77 -170 -100 -38 -22 -81 -47
-95 -56 -14 -9 -70 -42 -125 -74 -133 -78 -249 -148 -255 -155 -3 -3 -15 -11
-28 -18 -20 -11 -24 -9 -42 20 -11 18 -20 36 -20 40 0 7 57 43 125 79 28 14
115 61 195 106 201 110 243 135 255 143 6 4 37 22 70 40 33 18 78 45 100 59
22 14 51 31 65 37 41 19 186 124 170 123 -8 0 -30 -5 -49 -11z m-962 -687 c11
-20 27 -43 35 -50 20 -17 21 -31 1 -31 -19 0 -80 -36 -261 -156 -82 -54 -153
-101 -159 -104 -5 -3 -36 -22 -67 -42 -65 -42 -192 -108 -208 -108 -12 0 -90
117 -90 134 0 6 39 33 87 60 48 27 112 66 142 86 31 20 130 74 221 120 91 46
188 95 215 110 28 15 53 26 58 23 4 -2 16 -21 26 -42z"/>
<path d="M16408 9824 c-5 -4 -8 -21 -8 -38 0 -21 3 -27 11 -19 6 6 9 23 7 38
-2 15 -6 23 -10 19z"/>
<path d="M16398 9744 c-5 -4 -8 -19 -8 -33 0 -18 3 -22 11 -14 6 6 9 21 7 33
-1 12 -6 18 -10 14z"/>
<path d="M11610 9685 c-10 -12 -10 -21 -2 -40 15 -33 50 -33 58 0 11 44 -29
72 -56 40z"/>
<path d="M16380 9634 c0 -8 5 -12 10 -9 6 3 10 10 10 16 0 5 -4 9 -10 9 -5 0
-10 -7 -10 -16z"/>
<path d="M16364 9566 c-6 -12 -7 -31 -4 -42 5 -14 9 -10 14 20 9 45 5 53 -10
22z"/>
<path d="M16347 9473 c-11 -10 -8 -43 3 -43 6 0 10 11 10 25 0 26 -2 29 -13
18z"/>
<path d="M16329 9378 c0 -7 -3 -43 -8 -80 -4 -38 -4 -68 0 -68 4 0 10 26 14
58 3 31 9 67 12 80 3 13 0 22 -6 22 -6 0 -11 -6 -12 -12z"/>
<path d="M16203 9205 c0 -27 2 -38 4 -22 2 15 2 37 0 50 -2 12 -4 0 -4 -28z"/>
<path d="M16188 9144 c-5 -4 -8 -19 -8 -33 0 -18 3 -22 11 -14 6 6 9 21 7 33
-1 12 -6 18 -10 14z"/>
<path d="M16305 8944 c-72 -75 -131 -142 -133 -149 -2 -7 2 -16 7 -20 7 -4 11
3 11 17 0 16 32 54 107 126 58 56 119 110 135 120 29 17 38 42 15 42 -7 0 -71
-61 -142 -136z"/>
<path d="M16401 8918 c-72 -68 -122 -131 -110 -142 6 -6 185 168 199 194 21
39 -11 21 -89 -52z"/>
<path d="M16172 8705 c0 -16 2 -22 5 -12 2 9 2 23 0 30 -3 6 -5 -1 -5 -18z"/>
<path d="M16160 8670 c-15 -29 -70 -462 -60 -470 4 -3 15 -19 23 -37 9 -17 30
-41 47 -53 16 -12 30 -28 30 -35 0 -8 17 -26 38 -41 20 -16 49 -39 65 -53 50
-46 28 -13 -35 51 -35 35 -85 89 -112 121 -44 51 -48 60 -43 94 4 21 18 115
32 208 14 94 24 181 22 195 -2 14 -5 23 -7 20z"/>
<path d="M16272 8640 c0 -14 2 -19 5 -12 2 6 2 18 0 25 -3 6 -5 1 -5 -13z"/>
<path d="M16260 8545 c0 -20 -6 -48 -14 -63 -15 -29 -26 -98 -28 -177 0 -27
-5 -52 -9 -55 -12 -8 1 -50 16 -50 16 0 75 -66 75 -84 0 -14 29 -31 37 -22 6
5 -50 88 -85 127 -23 26 -23 26 -8 115 18 109 31 244 22 244 -3 0 -6 -16 -6
-35z"/>
<path d="M16345 7878 c-3 -35 -13 -114 -21 -177 -7 -63 -12 -117 -9 -119 7 -7
10 9 33 138 32 175 35 220 18 220 -10 0 -16 -18 -21 -62z"/>
<path d="M16455 7890 c-3 -5 -1 -10 4 -10 6 0 11 5 11 10 0 6 -2 10 -4 10 -3
0 -8 -4 -11 -10z"/>
<path d="M16446 7838 c-10 -50 -15 -132 -7 -118 11 18 25 140 17 140 -3 0 -8
-10 -10 -22z"/>
<path d="M16230 7773 c0 -28 3 -34 10 -23 13 20 13 60 0 60 -5 0 -10 -17 -10
-37z"/>
<path d="M16220 7706 c0 -22 3 -27 11 -19 8 8 8 16 0 30 -9 16 -10 14 -11 -11z"/>
<path d="M16428 7684 c-5 -4 -8 -16 -8 -28 0 -14 3 -17 11 -9 6 6 9 19 7 28
-1 9 -6 13 -10 9z"/>
<path d="M16212 7645 c0 -16 2 -22 5 -12 2 9 2 23 0 30 -3 6 -5 -1 -5 -18z"/>
<path d="M16410 7599 c0 -11 5 -17 10 -14 6 3 10 13 10 21 0 8 -4 14 -10 14
-5 0 -10 -9 -10 -21z"/>
<path d="M3251 7570 c-11 -24 -21 -66 -76 -295 -14 -60 -30 -119 -35 -130 -12
-27 -71 -260 -77 -305 -3 -19 -14 -43 -24 -53 -18 -17 -17 -38 4 -64 12 -16
49 -17 65 -1 15 15 16 55 1 64 -6 3 -8 17 -4 33 14 50 56 236 84 366 15 72 30
137 34 145 11 26 48 241 44 253 -2 7 -9 1 -16 -13z m-156 -814 c0 -25 -16 -30
-39 -13 -24 17 -12 39 17 35 14 -2 22 -10 22 -22z"/>
<path d="M16202 7565 c0 -16 2 -22 5 -12 2 9 2 23 0 30 -3 6 -5 -1 -5 -18z"/>
<path d="M16300 7539 c0 -14 -4 -29 -9 -34 -13 -14 -26 -135 -14 -135 10 0 38
178 29 187 -3 4 -6 -5 -6 -18z"/>
<path d="M16402 7535 c0 -16 2 -22 5 -12 2 9 2 23 0 30 -3 6 -5 -1 -5 -18z"/>
<path d="M16186 7520 c-12 -29 -36 -175 -35 -210 l1 -35 9 35 c31 130 47 264
25 210z"/>
<path d="M16393 7465 c0 -22 2 -30 4 -17 2 12 2 30 0 40 -3 9 -5 -1 -4 -23z"/>
<path d="M16377 7413 c-11 -10 -8 -51 3 -58 6 -4 10 8 10 29 0 37 -2 41 -13
29z"/>
<path d="M3094 7369 c-12 -15 -30 -76 -74 -239 -22 -86 -34 -112 -64 -145 -20
-21 -36 -45 -36 -53 0 -25 49 -63 78 -60 39 4 53 40 40 103 -11 51 -5 80 57
324 17 67 16 92 -1 70z"/>
<path d="M16284 7201 c-87 -66 -102 -82 -107 -114 -3 -17 -12 -63 -20 -100
-11 -52 -12 -75 -3 -93 6 -13 14 -24 17 -24 3 0 36 19 72 43 36 23 72 47 81
52 11 7 20 45 31 129 8 65 12 122 9 127 -10 17 -41 9 -80 -20z m35 -115 c1
-54 1 -55 -45 -90 -26 -20 -51 -36 -55 -36 -12 0 -11 93 1 124 9 25 52 55 81
56 12 0 16 -12 18 -54z"/>
<path d="M3687 5878 c-52 -171 -86 -295 -98 -353 -7 -33 -15 -64 -19 -70 -4
-5 -13 -35 -19 -65 -7 -30 -24 -93 -38 -140 -14 -47 -38 -128 -53 -180 -16
-52 -40 -133 -54 -180 -28 -90 -53 -186 -92 -340 -13 -52 -31 -120 -40 -150
-9 -30 -28 -100 -41 -155 -14 -55 -38 -154 -54 -220 -17 -66 -43 -178 -59
-248 -16 -71 -34 -143 -40 -160 -5 -18 -18 -61 -28 -97 -14 -51 -22 -66 -39
-68 -49 -7 -75 -81 -54 -158 24 -89 85 -110 146 -49 53 54 83 142 54 161 -6 3
-8 15 -6 26 5 18 1 20 -39 16 -24 -2 -44 1 -44 5 0 7 32 138 46 187 2 8 17 74
33 145 16 72 30 130 31 130 2 0 34 136 79 335 17 74 34 142 38 150 3 8 19 67
34 130 15 63 41 165 57 225 16 61 40 148 52 195 13 47 29 92 36 100 7 9 22 52
33 95 11 44 28 114 39 155 11 41 25 102 32 135 7 33 16 65 20 70 4 6 17 52 29
103 12 52 26 101 30 110 15 30 63 233 57 239 -2 2 -15 -33 -29 -79z m-569
-2470 c7 -7 12 -31 12 -54 0 -36 -5 -47 -40 -78 -47 -42 -62 -45 -84 -11 -19
29 -22 118 -3 133 24 20 98 27 115 10z"/>
<path d="M3776 5773 c-8 -27 -22 -75 -29 -108 -8 -33 -29 -112 -47 -175 -17
-63 -47 -178 -65 -255 -18 -77 -45 -184 -59 -238 -30 -113 -32 -127 -12 -107
14 15 42 112 96 330 16 63 43 162 60 220 17 58 42 146 56 195 13 50 31 107 39
128 9 21 13 43 10 48 -14 22 -34 6 -49 -38z"/>
<path d="M15726 4015 c-3 -9 -6 -38 -6 -64 0 -26 -3 -51 -7 -55 -5 -4 -9 -22
-10 -39 -1 -18 -11 -99 -22 -182 -11 -82 -32 -262 -46 -400 -13 -137 -31 -302
-39 -365 -9 -63 -25 -200 -36 -305 -11 -104 -25 -203 -30 -220 -22 -69 -84
-618 -70 -623 4 -2 5 -23 2 -47 -3 -30 -1 -45 7 -45 6 0 14 6 16 13 7 17 36
212 41 267 8 95 12 128 18 146 3 11 13 107 21 214 15 180 30 311 69 595 9 61
20 166 26 235 20 232 51 505 60 527 16 38 35 326 23 347 -9 17 -11 17 -17 1z"/>
<path d="M15792 3416 c-26 -33 -24 -27 -27 -136 -1 -47 -7 -112 -14 -145 -7
-33 -25 -157 -41 -275 -16 -118 -33 -233 -39 -255 -14 -52 -14 -165 -1 -165 6
0 10 7 10 15 0 8 6 15 14 15 15 0 42 129 51 245 18 241 38 441 45 450 9 13 34
233 29 260 -4 18 -6 17 -27 -9z"/>
</g>
</svg>
